<?xml version="1.0" encoding="utf-8"?>
<!-- Generator: Adobe Illustrator 21.0.2, SVG Export Plug-In . SVG Version: 6.00 Build 0)  -->
<svg version="1.1" id="Layer_1" xmlns="http://www.w3.org/2000/svg" xmlns:xlink="http://www.w3.org/1999/xlink" x="0px" y="0px"
	 width="153.74px" height="194.98px" viewBox="0 0 153.74 194.98" style="enable-background:new 0 0 153.74 194.98;"
	 xml:space="preserve">
<style type="text/css">
	.st0{fill:#EAC2A0;}
	.st1{fill:#F7E0CB;}
	.st2{fill:#0A0909;}
	.st3{fill:#FFF4E6;}
	.st4{opacity:0.5;fill:#0A0909;}
	.st5{fill:#7A0A0A;}
	.st6{fill:#962222;}
	.st7{fill:#D3A116;}
	.st8{fill:#820909;}
	.st9{fill:#D18E18;}
</style>
<g>
	<path class="st0" d="M104.7,40.93c0,0,7.3,1.58-3.45,15.76S80.24,90.22,80.24,90.22h-2.58c0,0-11.95-24.08-19.12-30.52
		c0,0-9.33-11.68-3.88-15.95c0,0,3.96-2.76,8.36-2.82s13.22,10.13,17.21,8.45C84.23,47.69,104.7,40.93,104.7,40.93z"/>
	<path class="st1" d="M53.13,25.01c0,0,1.13,16.81,7.9,24.24s29.65,14.47,42.7-6.26c0,0,10.51-20.14-2.76-34.9
		c0,0-19.07-18.94-44.24,2.12L53.13,25.01z"/>
	<path class="st2" d="M68.6,1.16v12.51c0,0,13.94,10.17,32.65,4.3c0,0,4.17,0.59-1.4,16.23c0,0,0.87,2.54,2.38,5.67
		c0,0,7.33-8.75,5.45-18.44C107.68,21.43,106.43-5.88,68.6,1.16z"/>
	<path class="st2" d="M68.6,1.16l0.81,2.65l-1.27,0.16l-1.31,7.98l-6.2,9.56c0,0-1.99,3.89,1.79,11.71l-2.32,6.26l-5.57-5.17
		C54.53,34.31,48.19,6.6,68.6,1.16z"/>
	<ellipse class="st2" cx="73.62" cy="28.48" rx="1.94" ry="1.91"/>
	<ellipse class="st2" cx="88.56" cy="28.48" rx="1.94" ry="1.91"/>
	<path class="st2" d="M66.83,55.76c0,0-1.49-1.76-1.49-3.08c0-1.32,0.45-10.12,2.09-11.8s2.91-3.52,11.95-3.08s11.8,0.81,13.59,2.49
		s3.5,12.5,0,16.06C92.14,58.1,73.77,63.24,66.83,55.76z"/>
	<path class="st3" d="M75.56,49.97c0,0-2.31-0.81-1.57-3.23c0.75-2.42,3.96-3.23,7.02-2.93c3.06,0.29,5.3,1.03,5.6,4.77
		s-5.97,0.81-6.38,0.81C79.82,49.38,76.98,50.26,75.56,49.97z"/>
	<path class="st1" d="M135.32,138.02c0,0-0.62,12.02,4.6,11.44c0,0-0.15,9.68,2.24,9.68c2.39,0,13.25-12.92,11.35-29.91h-13.59
		L135.32,138.02z"/>
	<path class="st1" d="M0,128.64c0,0,2.99,24.64,11.65,30.5c0,0,5.68-3.95,4.48-11.14c0,0,4.51,9.26,3.28-5.5S6.57,126,6.57,126
		L0,128.64z"/>
	<path class="st1" d="M40.49,172.52c0,0,2.82,14.18,6.1,19.76c3.29,5.57,25.09,0,25.09,0s7.38-7.25,3.99-19.76
		c-3.39-12.5-33.26-2.83-33.26-2.83L40.49,172.52z"/>
	<path class="st1" d="M83.35,169.99c0,0-2.41,7.63,3.27,19.94c2.38,5.18,6.91,2.45,11.44,2.21c6.25-0.33,12.45,0.43,12.45,0.43
		s11.65-11.44,8.96-22.58C116.78,158.84,83.35,169.99,83.35,169.99z"/>
	<path class="st4" d="M66.23,72.87c0,0,3.17-3.26,5.73,0c0,0,4.09-3.26,5.88,0c0,0,3.44-2.51,4.91,0c0,0,2.85-2.63,4.8,0
		c0,0,2.83-3.26,3.97,0l-3.55,16.31l-8.15,8.08l-11.58-10.7L66.23,72.87z"/>
	<path class="st5" d="M26.44,78.01c0,0-18.37,12.21-26.44,50.63c0,0,12.23,12.76,19.41,13.86S33.17,84.27,26.44,78.01z"/>
	<path class="st5" d="M129.68,73.94c0,0,22.64,14.22,23.84,55.28c0,0-3.24,4.11-18.19,8.8l-8.99-14.37L129.68,73.94z"/>
	<path class="st6" d="M112.9,55.32c0,0,23.3,7.04,22.4,53.96c0,0-3.58,45.16-14.34,61c0,0-48.09,8.8-95.58,0
		c0,0-18.82-55.27,3.88-98.17c0,0,5.97-9.59,16.73-15.42l25.69,27.66l5.01,7.92l11.86-11L112.9,55.32z"/>
	<path class="st7" d="M86.63,119.55l-8.37-2.05c-32.79-2.99-51.37-9.38-59.07-12.65c-0.76,5.7-1.09,11.32-1.11,16.74
		c33.84,8.91,61.58,1.18,61.58,1.18l3.97,1.17c8.96,3.52,47.19,6.45,47.19,6.45c0.74-0.23,1.41-0.49,2.03-0.79
		c1.14-7.41,1.84-13.8,2.18-17.35C123.23,117.23,86.63,119.55,86.63,119.55z"/>
	<path class="st8" d="M80.4,91.98c0,0-8.21-21.6-20.26-35.29c0,0-3.41-1.58-4.29-11.05c0,0-0.3-3.52-5.08,0
		c-4.78,3.52-11.95,9.68-2.39,26.1c0,0,19.71,22.8,23.3,28.41l7.97-2.6L80.4,91.98z"/>
	<path class="st5" d="M105.43,43c0,0-2.9,12.02-11.46,22.29s-26.62,36.66-27.15,54.26c0,0,36.51-33.14,42.78-50.74
		C109.61,68.81,123.19,47.61,105.43,43z"/>
	<path class="st7" d="M86.57,159.14c0,0-3.44-29.93-4.47-36.69l1.03-2.91l11.05,25.52L86.57,159.14z"/>
	<path class="st7" d="M71.68,178.49c0,0,15.7-17.17,10.67-52.94l-4.84-0.48c0,0,2.98,12.35-10.69,34.06
		C66.83,159.14,71.38,169.7,71.68,178.49z"/>
	<ellipse class="st9" cx="81.29" cy="120.38" rx="5.72" ry="5.62"/>
	<path class="st0" d="M72.46,194.98c1.35,0.04,2.52-0.93,2.74-2.26c0.57-3.42,0.99-9.37-3.1-9.03c-2.7,0.23-3.85,0.75-4.39,1.54
		c-0.77,1.13-2.21,1.69-3.46,1.14c-0.69-0.31-1.41-0.29-2.04,0.45c-0.12,0.14-0.23,0.28-0.33,0.41c-0.84,1.09-2.37,1.47-3.52,0.72
		c-0.49-0.32-1.09-0.35-1.83,0.21c-0.93,0.7-2.18,0.64-3.11-0.05c-0.64-0.47-1.44-0.57-2.3,0.47c-0.71,0.85-1.86,1.23-2.9,0.87
		c-1.41-0.48-3.13-0.52-3.31,2.03c-0.07,1.04,0.1,3.28,1.69,3.28C51.71,194.75,58.28,194.57,72.46,194.98z"/>
	<path class="st0" d="M85.86,192.84c-0.45-2.45-0.89-7.31,2.19-9.31c0.15-0.1,0.31-0.17,0.48-0.21c1.06-0.3,4.97-1.07,6.24,3.41
		c0.27,0.95,1.25,1.52,2.21,1.27c0.89-0.23,1.92-0.19,2.65,0.73c0.46,0.59,1.26,0.79,1.98,0.57c1.07-0.31,2.53-0.42,3.56,0.74
		c0.51,0.57,1.33,0.71,2.04,0.42c0.7-0.29,1.6-0.44,2.44,0.05c0.55,0.31,1.21,0.38,1.77,0.09c0.93-0.48,2.41-0.63,3.72,1.94
		c0.39,0.77,0.16,2.48-1.19,2.39c-5.36-0.35-16.53-0.07-26.35-0.55C86.73,194.33,86.02,193.69,85.86,192.84z"/>
</g>
</svg>
