<?xml version="1.0" encoding="utf-8"?>
<!-- Generator: Adobe Illustrator 21.0.2, SVG Export Plug-In . SVG Version: 6.00 Build 0)  -->
<svg version="1.1" id="Layer_1" xmlns="http://www.w3.org/2000/svg" xmlns:xlink="http://www.w3.org/1999/xlink" x="0px" y="0px"
	 width="1366px" height="768px" viewBox="0 0 1366 768" style="enable-background:new 0 0 1366 768;" xml:space="preserve">
<style type="text/css">
	.st0{clip-path:url(#SVGID_2_);fill:#314D5C;}
	.st1{opacity:0.4;clip-path:url(#SVGID_2_);fill:#44B19C;}
	.st2{opacity:0.55;clip-path:url(#SVGID_2_);fill:#44B19C;}
	.st3{clip-path:url(#SVGID_2_);fill:#44B19C;}
	.st4{clip-path:url(#SVGID_2_);fill:#314D5C;stroke:#08332B;stroke-miterlimit:10;}
	.st5{opacity:0.4;clip-path:url(#SVGID_2_);fill:#0B6856;}
	.st6{clip-path:url(#SVGID_2_);fill:#0B6856;}
	.st7{clip-path:url(#SVGID_2_);fill:#384F54;}
	.st8{clip-path:url(#SVGID_2_);}
	.st9{fill:#F2CA42;}
	.st10{clip-path:url(#SVGID_2_);fill:#485D66;}
	.st11{clip-path:url(#SVGID_2_);fill:#2C4851;}
	.st12{clip-path:url(#SVGID_2_);fill:#4F646B;}
	.st13{fill:#4F646B;}
	.st14{fill:#485D66;}
	.st15{opacity:0.37;clip-path:url(#SVGID_2_);fill:#F2CA42;}
	.st16{opacity:0.63;clip-path:url(#SVGID_2_);fill:#2C4851;}

		.st17{clip-path:url(#SVGID_2_);fill:#B2CCC7;stroke:#E6EFED;stroke-width:5;stroke-linecap:round;stroke-linejoin:round;stroke-miterlimit:10;}
	.st18{opacity:0.4;clip-path:url(#SVGID_2_);fill:#44B19C;stroke:#FFFFFF;stroke-width:6;stroke-miterlimit:10;}
	.st19{opacity:0.32;clip-path:url(#SVGID_2_);fill:#44B19C;stroke:#FFFFFF;stroke-width:6;stroke-miterlimit:10;}
	.st20{opacity:0.32;clip-path:url(#SVGID_2_);fill:none;stroke:#FFFFFF;stroke-width:6;stroke-miterlimit:10;}
	.st21{clip-path:url(#SVGID_2_);fill:#44B19C;stroke:#FFFFFF;stroke-width:6;stroke-miterlimit:10;}
	.st22{clip-path:url(#SVGID_2_);fill:#44B19C;stroke:#FFFFFF;stroke-width:3;stroke-miterlimit:10;}
	.st23{fill:#8C312A;}
	.st24{fill:#C94D3D;}
	.st25{fill:#702723;}
	.st26{fill:#511807;}
	.st27{fill:#314D5C;}
</style>
<g>
	<defs>
		<polygon id="SVGID_1_" points="1366,0 -0.5,0.5 0,768 1366.5,768.5 		"/>
	</defs>
	<clipPath id="SVGID_2_">
		<use xlink:href="#SVGID_1_"  style="overflow:visible;"/>
	</clipPath>
	<polygon class="st0" points="0,768 309,468.5 1366,600.5 1366,768 	"/>
	<polygon class="st1" points="0,768 309,469 309,0 0,0 	"/>
	<polygon class="st1" points="268.07,509.93 308,471 361,477 326,518 	"/>
	<polygon class="st1" points="193.07,587.93 233,549 286,555 251,596 	"/>
	<polygon class="st1" points="103.07,667.93 143,629 196,635 161,676 	"/>
	<polygon class="st2" points="208.07,634.93 248,596 301,602 266,643 	"/>
	<polygon class="st3" points="304.07,603.93 344,565 397,571 362,612 	"/>
	<polygon class="st3" points="379.07,523.93 419,485 472,491 437,532 	"/>
	<polygon class="st3" points="397.07,570.93 437,532 490,538 455,579 	"/>
	<polygon class="st3" points="490.07,537.93 530,499 583,505 548,546 	"/>
	<polygon class="st3" points="509.07,584.93 549,546 602,552 567,593 	"/>
	<polygon class="st2" points="433.07,667.93 473,629 526,635 491,676 	"/>
	<polygon class="st1" points="103,731.35 157.14,680 229,687.91 181.55,742 	"/>
	<polygon class="st2" points="526.07,634.93 566,596 619,602 584,643 	"/>
	<polygon class="st1" points="315,723.29 370,662 443,671.45 394.79,736 	"/>
	<polygon class="st1" points="453.07,717.93 493,679 546,685 511,726 	"/>
	<polygon class="st3" points="814.07,579.93 854,541 907,547 872,588 	"/>
	<polygon class="st3" points="836.07,627.93 876,589 929,595 894,636 	"/>
	<polygon class="st3" points="929.07,593.93 969,555 1022,561 987,602 	"/>
	<polygon class="st3" points="1040.07,606.93 1080,568 1133,574 1098,615 	"/>
	<polygon class="st2" points="1056.07,657.93 1096,619 1149,625 1114,666 	"/>
	<polygon class="st2" points="1076.07,708.93 1116,670 1169,676 1134,717 	"/>
	<polygon class="st1" points="1169.07,674.93 1209,636 1262,642 1227,683 	"/>
	<polygon class="st1" points="1097,768 1136.06,722 1221,733.74 1197,768 	"/>
	<polygon class="st3" points="947.07,641.93 987,603 1040,609 1005,650 	"/>
	<polygon class="st2" points="852.07,674.93 892,636 945,642 910,683 	"/>
	<polygon class="st1" points="869.07,731.33 922.75,679 994,687.07 946.95,742.18 	"/>
	<polygon class="st2" points="712,673.03 767.43,619 841,627.33 792.42,684.24 	"/>
	<polygon class="st3" points="416.07,617.93 456,579 509,585 474,626 	"/>
	<polygon class="st2" points="323.07,650.93 363,612 416,618 381,659 	"/>
	<polygon class="st2" points="286.07,556.93 326,518 379,524 344,565 	"/>
	<polygon class="st3" points="310,0 310,470 1367,601 1367,0 	"/>
	<polygon class="st4" points="1076.07,1.5 1076,274 1365,319.97 1365,1 	"/>
	<polygon class="st5" points="1076,1 1076,274 1044,302 1037.9,1 	"/>
	<path class="st6" d="M883-60"/>
	<polygon class="st6" points="1041,302 1366,360.08 1366,320 1077,274 	"/>
	<polygon class="st7" points="1207,210 1207,240 1219,247 1219,214 	"/>
	<g class="st8">

			<image style="overflow:visible;" width="412" height="498" xlink:href="69E2D764DF001AFE.png"  transform="matrix(1 0 0 1 1070 -186)">
		</image>
		<g>
			<path class="st9" d="M1199,183c85.05,0,154-53.73,154-120s-68.95-120-154-120l23.91,25.04c54.05,56.6,53.85,134.17-0.47,190.61
				L1199,183z"/>
		</g>
	</g>
	<polygon class="st10" points="1076,169 1076,274 1149,286 1153,195 1124,195 1124,221 1114,220 1114,169 	"/>
	<rect x="1087" y="184" class="st11" width="14" height="20"/>
	<rect x="1132" y="204" class="st11" width="14" height="20"/>
	<rect x="1279" y="250" class="st11" width="14" height="20"/>
	<rect x="1280" y="226" class="st11" width="14" height="20"/>
	<rect x="1087" y="210" class="st11" width="14" height="20"/>
	<rect x="1115" y="256" class="st11" width="14" height="20"/>
	<rect x="1087" y="236" class="st11" width="14" height="20"/>
	<rect x="1115" y="230" class="st11" width="14" height="20"/>
	<rect x="1280" y="230" class="st11" width="14" height="20"/>
	<rect x="1280" y="256" class="st11" width="14" height="20"/>
	<rect x="1280" y="286" class="st11" width="14" height="20"/>
	<polygon class="st12" points="1146,288 1151.9,222 1184,227 1184,242 1199,242 1199,201 1234,201 1229,268 1244,268 1244,238
		1265,238 1265,304 	"/>
	<rect x="1207" y="214" class="st11" width="14" height="20"/>
	<g class="st8">
		<polygon class="st13" points="1352,230 1352,271 1337,271 1337,256 1304.9,251 1299.66,309.6 1365,320 1365,230 		"/>
	</g>
	<g class="st8">
		<polygon class="st14" points="1342,240 1313,240 1313,266 1303,265 1303,214 1265,214 1265,304.08 1338.67,315.81 		"/>
	</g>
	<polygon class="st7" points="1162,236 1162,266 1174,273 1174,240 	"/>
	<polygon class="st7" points="1281,227 1281,257 1293,264 1293,231 	"/>
	<polygon class="st7" points="1249,247 1249,277 1261,284 1261,251 	"/>
	<polygon class="st15" points="1187,256 1187,273 1203,273 1203,255 	"/>
	<polygon class="st15" points="1213,276 1213,293 1229,293 1229,275 	"/>
	<polygon class="st16" points="1274,271 1274,288 1290,288 1290,270 	"/>
	<polygon class="st16" points="1295,285 1295,302 1311,302 1311,284 	"/>
	<ellipse class="st5" cx="106" cy="169" rx="45" ry="115"/>
	<ellipse class="st5" cx="108.14" cy="165.11" rx="37.68" ry="96.35"/>
	<path class="st17" d="M467.22,115.1l-22.07,352.67c-0.34,5.49,3.44,10.38,8.84,11.42l197.96,38.22c6.59,1.27,12.76-3.64,13-10.34
		l13.6-378.3c0.21-5.91-4.31-10.91-10.2-11.3l-189.49-12.58C472.82,104.47,467.6,109.06,467.22,115.1z"/>
	<path class="st17" d="M417.13,206.43l49.16-99.86c0.98-1.98,3.05-3.17,5.26-3.01l200.72,14.51c3.57,0.26,5.91,3.84,4.72,7.22
		l-35.32,99.81c-0.81,2.29-3.05,3.76-5.48,3.6l-214.56-14.46C417.78,213.97,415.43,209.89,417.13,206.43z"/>
	<path class="st17" d="M404.68,240.95l-7.67,326.01c-0.3,12.54,8.86,23.45,21.67,25.83l175.55,32.58
		c16.12,2.99,31.21-8.55,31.8-24.32l12.94-346.18c0.52-13.84-10.46-25.59-24.83-26.57l-180.82-12.42
		C418.08,214.83,405.03,226.26,404.68,240.95z"/>
	<path class="st17" d="M639.62,228.5l32.62-90.22c1.27-3.5,6.47-2.49,6.32,1.23l-14.47,379.4c-0.01,0.33-0.07,0.65-0.18,0.96
		l-31.8,90.55c-1.24,3.53-6.47,2.54-6.33-1.2l13.65-379.73C639.44,229.15,639.51,228.81,639.62,228.5z"/>
	<path class="st17" d="M408.23,228.71l8.72-22.66c0,0-0.19,6.63,7.97,8.41C424.93,214.46,416.49,214.86,408.23,228.71z"/>
	<path class="st18" d="M601.35,443.58l-27.01-2.98c-3.25-0.36-5.61-3.31-5.26-6.56v0c0.36-3.25,3.31-5.61,6.56-5.26l27.01,2.98
		c3.25,0.36,5.61,3.31,5.26,6.56v0C607.55,441.58,604.6,443.94,601.35,443.58z"/>
	<line class="st19" x1="106.08" y1="68.76" x2="106.08" y2="81.2"/>
	<line class="st19" x1="111.76" y1="261.47" x2="111.76" y2="250.59"/>
	<line class="st19" x1="145.28" y1="148.96" x2="140.98" y2="151.6"/>
	<line class="st19" x1="75.26" y1="182.11" x2="70.71" y2="183.45"/>
	<path class="st19" d="M72.56,186.71"/>
	<path class="st19" d="M107.63,179.1L107.63,179.1c-1.7,0-3.1-1.39-3.1-3.1v-0.02c0-1.7,1.39-3.1,3.1-3.1h0c1.7,0,3.1,1.39,3.1,3.1
		V176C110.73,177.71,109.34,179.1,107.63,179.1z"/>
	<line class="st20" x1="110.73" y1="166.67" x2="129.32" y2="148.8"/>
	<line class="st20" x1="104.53" y1="183.76" x2="84.92" y2="218.73"/>
	<path class="st21" d="M1235,821"/>
	<path class="st22" d="M1011.5,573.5"/>
	<g class="st8">
		<ellipse class="st23" cx="984.5" cy="583.5" rx="52.5" ry="17.5"/>
		<polygon class="st23" points="940,554 932,583 1037,583 1030,554 		"/>
		<ellipse class="st24" cx="984.5" cy="553.5" rx="45" ry="15"/>
		<ellipse class="st25" cx="984.5" cy="554.5" rx="45" ry="15"/>
		<g>
			<path class="st26" d="M1025.07,561c-7.27-5.03-22.7-8.5-40.57-8.5s-33.3,3.47-40.57,8.5c7.27,5.03,22.7,8.5,40.57,8.5
				S1017.8,566.03,1025.07,561z"/>
		</g>
	</g>
	<g class="st8">
		<ellipse class="st23" cx="1071" cy="603.67" rx="34" ry="11.33"/>
		<polygon class="st23" points="1042.18,584.56 1037,603.34 1105,603.34 1100.47,584.56 		"/>
		<ellipse class="st23" cx="1071" cy="584.24" rx="29.14" ry="9.71"/>
		<ellipse class="st25" cx="1071" cy="584.89" rx="29.14" ry="9.71"/>
		<g>
			<path class="st27" d="M1097.27,589.1c-4.71-3.26-14.7-5.5-26.27-5.5s-21.57,2.25-26.27,5.5c4.71,3.26,14.7,5.5,26.27,5.5
				S1092.57,592.35,1097.27,589.1z"/>
		</g>
	</g>
</g>
<line class="st27" x1="0" y1="768" x2="0" y2="767"/>
</svg>
